<?xml version="1.0" encoding="UTF-8"?>
<svg id="Calque_2" data-name="Calque 2" xmlns="http://www.w3.org/2000/svg" viewBox="0 0 305.5 391.55">
  <defs>
    <style>
      .cls-1 {
        fill: #1d1d1b;
        stroke-width: 0px;
      }
    </style>
  </defs>
  <g id="Calque_1-2" data-name="Calque 1">
    <path class="cls-1" d="M305,177.64c1.8,12.7-1.47,27.02-7.79,34.61-6.32,8.17-15.7,9.62-26.13,9.89-2.32.06-4.13.06-5.09-.05,2,3.14,6,7.4,7,10.89-4-8.31-13-14.92-22-18.5,13,5.21,24,21.01,23,30.35-1,12.85-19-.24-41,6.32,2-.47,4-.78,6-1.32-7,1.78-13,2.73-20,6.8,5-2.58,11-5.07,16-5.9-11,2.47-21,7.63-31,13.42,6-4.02,11-6.73,17-9.13-15,6.62-28,15.44-34.68,11.86-1.09-.44-1.86-1.46-3.55-1.84-3.39-.78-6.96-2.91-11.39-7.03,10.4,14.5,6.96,15.95-7.96,6.49,10.58,8.96,8.83,12.85-9.29,10.07,6.81,5.89,9.53,8.19,7.55,11.5-1.98,2.96-8.65,6.94-20.61,7.96,8.22,3.98,12.57,4.32,11.31,8.1-1.26,3.43-8.14,10.28-22.4,19.26,17.01-8.18,26.64-16.47,26.71-13.55.06,2.53-9.44,16.27-30.69,43.21,46-54.07,47-59.7,5.88,17.26,35.12-61.88,29.46-52.59,1.15,1.55,16.83-37.75,11.01-29.39-7.1-5.51,7.52-17.12,2.74-15.14-4.68-13.61,0-6.5-2.3-11.35-3.43-17.79-3.38-19.49,3.94-49.11,15.19-71.19,1-2.92-1-3.03-2-2.52-12.75,23.8-18.19,53.3-16.31,76.57.31,3.86.83,7.52,1.47,10.99.64,3.47,1.43,6.7,2.29,9.74-4.45-2.01-6.45-6.91-12.45-6.27,5,2.94,4,14.79,7,20.04-4-5.41-9-17.66-19-11.53,4,8.04,9,12.77,12,19.82-9-19.04-33-26.26-55-20.36-13,5.27-22,12.36-22,33.32-1-19.08,8-24.65,13-39.14,0-1.51-2-5.76-3.04-7.3-2.4-4.66-5.26-9.79-8.69-15.89-3.42-6.1-7.41-13.19-12.04-21.87,17.88,24.41,27.08,27.68,31.56,22.54,4.49-5.81,4.27-20.02,3.35-46.06,2.44,37.74,2.03,30.89-.04-2.13.88,21.37.33,16.73,3.06-1.83,1.5,6.03,2.73,2.19,3.74-2.78.93-3.09,1.65-7.3,2.12-11.58.93-8.56.84-17.42-.03-24.35-1.43-10.19-3.66-18.45-4.71-6.3-5.61-26.95-10.06-30.28-21.31-7.9.35-7.03.27-12.41-.26-16.24-2.71-13.24-13.71-3.74-18.3-1.87,2.02-4.16,1.75-5.84.31-5.75-1.44.06-4.05,1.72-6.7,3.56-1.51,1.85-3.76.33-5.14-2.31-1.37-2.67-1.88-6.43-1.24-9.49,1.36-3.34.36-6.83-2.64-8.64,2-.16,4-.35,5,1.87-2-2.18-4-4.14-6-5.86,5,4.36,11,6.71,17,10.64-7-5.34-13-10.81-18-15.48,14,9.74,44,32.53,50,6.59.88-3.89,1.11-7.82.83-11.75-.28-3.93-1.07-7.86-2.25-11.75-11.58-17.5-22.58-33.67-30.83-46.92-1.87-2.16-3.5-4.21-4.75-6.46-1-1.99,1-6.88,4-12.51,3-4.68,7-9.56,7-8.16,11,23.33,24,61.5,53,64.73-25-11.6-42-35.76-48-67.25,0,.03-3,4.88-5-.21,4,2.06,9-9.7,10-7.46,9,16.69,15,43.28,30,58.74-14-15.78-23-38.34-30-58.74-2-2.98-6,12.39-10,7.46,7-2.99,10-13.37,16-19.83-6,4.92-11,21.18-16,18.46,31-40.4,46,20.49,69,43.51,7,7.44,14-2.25,19-6.91-1,.96-3,1.58-5,.87,1-3.87,3-5.88,6-5.91-1,.92-2,.51-3,.09,2-6.14,5-10,4.5-17.51.58-2.25.79-4.59,2.82-6.11,12.19-9.35,20.44-19.32,19.69-40.68,4,4.73,7,13.74,7,18.01,0-15.53-15-45.57-28-67.69,3,3.44,6,5.87,9,13.42-1-1.24-1,.03-2-1.18,10,16.19,20,36.09,20,47.79,1,.03,4,1.47,5,3.73,2,6.55,2,11.6,2,15.73,2,.09,0-8.15,4-.68,3,5.25,0,7.85,1,13.83,0-1.97,1-3.86,2-1.86,3,3.99,0,3.8.34,6.56,1.35,1.77,2.11,7.31,3.18,12.91,2.15,11.18,5.48,22.69,11.48,33.04-1-6.26-.11-11.23,1.7-14.92,1.81-3.72,4.56-6.2,7.32-8.05,1.32-1.14,2.65-2.12,4.57-1.82,1.92.3,2.02-.36,2.73.83-.32-2.69-1.32-6.39.68-7.13,3,.26,4-.03,4.81-2.21.2-.97.32-1.98.95-2.4.63-.43,2.31.53,5.04,2.58,2.72,2.01,5.3,3.16,9.34,5.41-2.14-1.38-3.14-2.26-5.14-4.11,2,.77,5,3.48,8,5.32-.33-.26-.67-.53-1-.8,8,4.97,17.5,9.91,26.5,11.1,9,1.55,17.5-.65,23.5-1.43-13,6.59-29,5.15-42-1.07-17-8.15-28-10.08-26,4.04,2,12.02,15,27.12,31,32.6,15,5.46,30,3.01,42-7.04,3,.65-2,4.42-2.16,5.73-1.48,2.19-2.46,4.11-2.99,5.9-.89,1.9-.99,1.65-1.5,1.89-2.35.31-3.35.95-5.35,1.71,1-.14,3-.95,4-1.16-2,.86-4,1.19-6,2.31,21-4.75,32-2.58,46.42,3.96,1.96.85,4.37,1.68,6.59,3.18Z"/>
  </g>
</svg>